<?xml version="1.0" encoding="UTF-8"?>
<svg xmlns="http://www.w3.org/2000/svg" viewBox="0 0 25 25">
  <defs>
    <style>
      .cls-1 {
        fill: #fff;
        fill-rule: evenodd;
      }

      .cls-2 {
        mix-blend-mode: hard-light;
        opacity: .5;
      }

      .cls-3 {
        isolation: isolate;
      }
    </style>
  </defs>
  <g class="cls-3">
    <g id="Ebene_1">
      <g id="Reason">
        <g class="cls-2">
          <path class="cls-1" d="M4.96,7.05l6.58-3.79c.59-.34,1.31-.34,1.9-.01h.02s6.58,3.81,6.58,3.81c.59.34.95.96.96,1.63v7.61c0,.68-.36,1.3-.94,1.65h-.02s-6.58,3.8-6.58,3.8c-.59.34-1.31.34-1.9.01h-.02s-6.58-3.81-6.58-3.81c-.59-.34-.95-.96-.96-1.63v-7.61c0-.68.36-1.3.94-1.65h.02s6.58-3.8,6.58-3.8l-6.58,3.79ZM12.5,6.19l-5.48,3.16v6.31l5.48,3.16v-6.31l5.48-3.16-5.48-3.16Z"/>
        </g>
      </g>
    </g>
  </g>
</svg>
