<?xml version="1.0" encoding="UTF-8"?>
<svg xmlns="http://www.w3.org/2000/svg" viewBox="0 0 40 19">
  <defs>
    <style>
      .cls-1 {
        mix-blend-mode: hard-light;
        opacity: .5;
      }

      .cls-2 {
        isolation: isolate;
      }

      .cls-3 {
        fill: #f2f2f2;
        fill-rule: evenodd;
      }

      .cls-4 {
        mix-blend-mode: luminosity;
      }
    </style>
  </defs>
  <g class="cls-2">
    <g id="Ebene_1" data-name="Ebene 1">
      <g id="Live_FHYD" data-name="Live FHYD">
        <g id="app-icon-live" class="cls-4">
          <g class="cls-1">
            <path class="cls-3" d="M2.64,18.71c0,.17-.14.29-.29.29H.31c-.17,0-.31-.12-.31-.29V.29C0,.17.14.02.31.02h2.04c.14,0,.29.14.29.26v18.42h0ZM7.98,18.71c0,.17-.14.29-.29.29h-2.04c-.17,0-.31-.12-.31-.29V.29c0-.12.14-.26.31-.26h2.04c.14,0,.29.14.29.26v18.42h0ZM13.33,18.71c0,.17-.14.29-.29.29h-2.04c-.17,0-.31-.12-.31-.29V.29c0-.12.14-.26.31-.26h2.04c.14,0,.29.14.29.26v18.42ZM18.69,18.71c0,.17-.14.29-.28.29h-2.04c-.17,0-.31-.12-.31-.29V.29c0-.12.14-.26.31-.26h2.04c.14,0,.28.14.28.26v18.42ZM39.72,0c.17,0,.28.15.28.29v2.08c0,.17-.12.31-.28.31h-18.12c-.12,0-.26-.14-.26-.31V.29c0-.14.14-.29.26-.29,0,0,18.12,0,18.12,0ZM39.72,5.46c.17,0,.28.15.28.29v2.08c0,.17-.12.31-.28.31h-18.12c-.12,0-.26-.15-.26-.31v-2.08c0-.15.14-.29.26-.29h18.12ZM39.72,10.89c.17,0,.28.14.28.29v2.08c0,.17-.12.32-.28.32h-18.12c-.12,0-.26-.14-.26-.32v-2.08c0-.15.14-.29.26-.29h18.12ZM39.72,16.32c.17,0,.28.15.28.29v2.08c0,.17-.12.31-.28.31h-18.12c-.12,0-.26-.14-.26-.31v-2.08c0-.14.14-.29.26-.29h18.12Z"/>
          </g>
        </g>
      </g>
    </g>
  </g>
</svg>
